<svg width="25" height="27" viewBox="0 0 25 27" fill="none" xmlns="http://www.w3.org/2000/svg">
<path d="M23.5511 25.5849C23.2502 25.8816 22.8619 26.0736 22.4434 26.1327C22.025 26.1917 21.5987 26.1146 21.2274 25.9129L12.378 21.2283L3.52852 25.9129C3.15719 26.1144 2.73092 26.1914 2.31254 26.1324C1.89417 26.0733 1.50583 25.8814 1.20479 25.5849L1.17828 25.5584C0.88257 25.2682 0.685839 24.8921 0.616024 24.4837C0.546209 24.0753 0.60686 23.6553 0.789367 23.2833L10.5731 1.97022C10.5758 1.96377 10.579 1.95756 10.5828 1.95166C10.7469 1.61519 11.0022 1.33154 11.3195 1.13298C11.6369 0.934406 12.0036 0.82889 12.3779 0.828429C12.7523 0.827969 13.1192 0.932583 13.4371 1.13037C13.7549 1.32816 14.0108 1.61118 14.1758 1.94724L14.1855 1.9658L23.9666 23.2833C24.1519 23.6611 24.2115 24.0882 24.1368 24.5023C24.062 24.9164 23.8568 25.2958 23.5511 25.5849Z" fill="#5C03ED"/>
</svg>
