<svg width="26" height="26" viewBox="0 0 26 26" fill="none" xmlns="http://www.w3.org/2000/svg">
<path d="M26 12V13C26 14.711 25.6622 16.4053 25.006 17.9855C24.3498 19.5658 23.3881 21.001 22.1761 22.2087C20.964 23.4165 19.5254 24.3731 17.9428 25.0237C16.3603 25.6743 14.6648 26.006 12.9538 26C6.20375 25.9762 0.703751 20.7425 0.0637506 14.1525C0.0568116 14.0666 0.0721644 13.9804 0.108322 13.9023C0.144479 13.8241 0.200214 13.7566 0.270127 13.7063C0.340039 13.656 0.421758 13.6246 0.507365 13.6152C0.592972 13.6057 0.679564 13.6186 0.75875 13.6525C1.65819 14.03 2.65609 14.1046 3.60166 13.8649C4.54723 13.6252 5.38908 13.0842 6 12.3237C6.40029 12.8215 6.90219 13.2282 7.47218 13.5165C8.04217 13.8049 8.66712 13.9683 9.30531 13.9959C9.94349 14.0235 10.5802 13.9145 11.1729 13.6764C11.7657 13.4383 12.3008 13.0764 12.7425 12.615C13.1473 13.2726 13.6977 13.8286 14.3513 14.24C13.62 14.7994 13.0275 15.5199 12.6197 16.3454C12.212 17.1709 11.9999 18.0792 12 19C11.9995 19.1386 12.0279 19.2759 12.0833 19.403C12.1387 19.5301 12.2199 19.6444 12.3219 19.7384C12.4238 19.8324 12.5441 19.9043 12.6753 19.9493C12.8065 19.9943 12.9456 20.0116 13.0838 20C13.3375 19.9726 13.572 19.8517 13.7414 19.6608C13.9108 19.4699 14.003 19.2227 14 18.9675C14.0086 17.9122 14.4338 16.9031 15.183 16.16C15.9322 15.4169 16.9447 14.9999 18 15C18.1371 15.0003 18.2728 14.9724 18.3986 14.918C18.5245 14.8637 18.6378 14.784 18.7316 14.684C18.8254 14.5841 18.8976 14.4658 18.9438 14.3368C18.9899 14.2077 19.0091 14.0705 19 13.9337C18.9776 13.6767 18.8589 13.4376 18.6677 13.2644C18.4764 13.0912 18.2267 12.9968 17.9688 13H17C16.2044 13 15.4413 12.6839 14.8787 12.1213C14.3161 11.5587 14 10.7956 14 9.99996V7.99996H22C23.0609 7.99996 24.0783 8.42138 24.8284 9.17153C25.5786 9.92168 26 10.9391 26 12ZM2.59125 12C3.94625 11.95 5 10.7962 5 9.43996V6.56496C5 5.20371 3.94625 4.04996 2.59125 3.99996C2.25535 3.98769 1.92042 4.04328 1.6065 4.16341C1.29257 4.28355 1.00609 4.46575 0.764195 4.69913C0.522297 4.93251 0.329945 5.21227 0.198641 5.52169C0.0673366 5.83111 -0.000223424 6.16383 5.55092e-07 6.49996V9.49996C-0.000223424 9.83608 0.0673366 10.1688 0.198641 10.4782C0.329945 10.7876 0.522297 11.0674 0.764195 11.3008C1.00609 11.5342 1.29257 11.7164 1.6065 11.8365C1.92042 11.9566 2.25535 12.0122 2.59125 12ZM9.59125 12C10.9463 11.9512 12 10.7975 12 9.44121V3.56621C12 2.20996 10.9463 1.05621 9.59125 1.00746C9.25598 0.995211 8.92167 1.05057 8.60825 1.17024C8.29482 1.28991 8.00869 1.47145 7.76689 1.70403C7.5251 1.9366 7.33259 2.21547 7.20084 2.52401C7.06909 2.83256 7.00078 3.16446 7 3.49996V9.49996C6.99978 9.83608 7.06734 10.1688 7.19864 10.4782C7.32994 10.7876 7.5223 11.0674 7.76419 11.3008C8.00609 11.5342 8.29257 11.7164 8.6065 11.8365C8.92042 11.9566 9.25535 12.0122 9.59125 12ZM19 3.49996C19.0002 3.16383 18.9327 2.83111 18.8014 2.52169C18.6701 2.21227 18.4777 1.93251 18.2358 1.69913C17.9939 1.46575 17.7074 1.28355 17.3935 1.16341C17.0796 1.04328 16.7447 0.987688 16.4088 0.999957C15.0538 1.04996 14 2.20371 14 3.55996V5.99996H18.5C18.6326 5.99996 18.7598 5.94728 18.8536 5.85351C18.9473 5.75974 19 5.63257 19 5.49996V3.49996Z" fill="#5C03ED"/>
</svg>
