<svg width="24" height="25" viewBox="0 0 24 25" fill="none" xmlns="http://www.w3.org/2000/svg">
<path d="M24 11.4437V22.9999C24 23.5304 23.7893 24.0391 23.4142 24.4142C23.0391 24.7892 22.5304 24.9999 22 24.9999H17C16.4696 24.9999 15.9609 24.7892 15.5858 24.4142C15.2107 24.0391 15 23.5304 15 22.9999V17.9999C15 17.7347 14.8946 17.4804 14.7071 17.2928C14.5196 17.1053 14.2652 16.9999 14 16.9999H10C9.73478 16.9999 9.48043 17.1053 9.29289 17.2928C9.10536 17.4804 9 17.7347 9 17.9999V22.9999C9 23.5304 8.78929 24.0391 8.41421 24.4142C8.03914 24.7892 7.53043 24.9999 7 24.9999H2C1.46957 24.9999 0.960859 24.7892 0.585786 24.4142C0.210714 24.0391 2.31098e-08 23.5304 2.31098e-08 22.9999V11.4437C-4.20536e-05 11.1669 0.057374 10.8931 0.168614 10.6396C0.279855 10.3862 0.442497 10.1586 0.64625 9.9712L10.6462 0.536199L10.66 0.522449C11.0282 0.187616 11.508 0.0020752 12.0056 0.0020752C12.5033 0.0020752 12.9831 0.187616 13.3512 0.522449C13.3555 0.52734 13.3601 0.531934 13.365 0.536199L23.365 9.9712C23.5667 10.1595 23.7273 10.3876 23.8365 10.641C23.9458 10.8944 24.0015 11.1677 24 11.4437Z" fill="#5C03ED"/>
</svg>
