<svg width="26" height="26" viewBox="0 0 26 26" fill="none" xmlns="http://www.w3.org/2000/svg">
<path d="M25.8662 24.5034C25.7784 24.6555 25.6521 24.7817 25.5001 24.8695C25.348 24.9573 25.1755 25.0034 25 25.0034H0.999951C0.824502 25.0032 0.652187 24.9569 0.500311 24.869C0.348434 24.7812 0.222342 24.6549 0.134695 24.503C0.0470479 24.351 0.000931552 24.1786 0.000976595 24.0031C0.00102164 23.8277 0.0472264 23.6553 0.134951 23.5034C2.0387 20.2122 4.97245 17.8521 8.3962 16.7334C6.70266 15.7252 5.38688 14.189 4.65094 12.3606C3.91499 10.5323 3.79956 8.5129 4.32238 6.6126C4.8452 4.71229 5.97735 3.03614 7.54498 1.84156C9.11261 0.64697 11.029 0 13 0C14.9709 0 16.8873 0.64697 18.4549 1.84156C20.0226 3.03614 21.1547 4.71229 21.6775 6.6126C22.2003 8.5129 22.0849 10.5323 21.349 12.3606C20.613 14.189 19.2972 15.7252 17.6037 16.7334C21.0275 17.8521 23.9612 20.2122 25.865 23.5034C25.9529 23.6553 25.9993 23.8277 25.9996 24.0032C25.9998 24.1788 25.9538 24.3513 25.8662 24.5034Z" fill="#5C03ED"/>
</svg>
